<?xml version="1.0" encoding="utf-8"?>
<!-- Generator: Adobe Illustrator 25.3.1, SVG Export Plug-In . SVG Version: 6.00 Build 0)  -->
<svg version="1.1" id="Layer_1" xmlns="http://www.w3.org/2000/svg" xmlns:xlink="http://www.w3.org/1999/xlink" x="0px" y="0px"
	 viewBox="0 0 259.3 48" style="enable-background:new 0 0 259.3 48;" xml:space="preserve">
<style type="text/css">
	.st0{fill:none;}
	.st1{clip-path:url(#SVGID_2_);}
	.st2{fill-rule:evenodd;clip-rule:evenodd;fill:#222325;}
</style>
<rect class="st0" width="259.3" height="48"/>
<g>
	<defs>
		<rect id="SVGID_1_" x="0.2" width="260" height="48"/>
	</defs>
	<clipPath id="SVGID_2_">
		<use xlink:href="#SVGID_1_"  style="overflow:visible;"/>
	</clipPath>
	<g class="st1">
		<path class="st2" d="M37.4,37.3c1.1,0.3,2.2,0.6,2.7,1.6l0,0c0.2,0.9-0.7,0.4-1.3,0c-0.2-0.1-0.4-0.2-0.5-0.3
			c-0.8-0.3-1.6-0.6-2.4-0.9c-0.5-0.2-1.1-0.4-1.6-0.6c-0.3-0.1-0.7-0.3-1-0.4c-0.9-0.2-0.6,1.3-0.4,2.7c0.1,0.7,0.3,1.4,0.2,1.7
			c0.1,1.4,0.2,5.6-1.7,5c-0.4-0.1-0.9-0.7-1.3-1.2c-0.2-0.3-0.5-0.5-0.6-0.7c-0.5-0.5-1.1-0.9-1.6-1.2c-0.8-0.4-1.6-0.5-2.3,0
			c-0.7,0.5-1.2,1.2-1.7,1.9c-0.1,0.2-0.2,0.3-0.3,0.4c-0.1,0.2-0.3,0.4-0.4,0.6v0c-0.7,1.1-1.7,2.6-2.7,1.7
			c-0.2-0.1-0.3-0.8-0.4-1.4c-0.1-0.5-0.2-1.1-0.3-1.2c-0.5-0.6-1-0.5-1.7-0.5c-0.5,0-1.1,0-1.6-0.3c-0.4-0.2-0.8-0.4-1.2-0.5
			c-0.8-0.2-1.5,0.2-2.2,0.6c-0.2,0.1-0.4,0.3-0.6,0.5c-1.1,0.8-2.7,2-3.6,1c-0.2-0.3-0.3-0.5-0.4-0.9c-0.6-1.9-0.8-4-0.5-6
			c0.1-0.3,0.1-0.5,0-0.8c-0.2-0.5-0.9-0.3-1.3-0.1c-0.1,0-0.2,0.1-0.2,0.1c-0.5,0.2-1,0.4-1.7,0.7h0c-1.8,0.8-4,1.7-4.3,0.8
			c0.8-0.5,1.6-1.1,2.4-1.7c1.4-1,2.8-2.1,4.6-2.7c0.1,0,0.6-0.2,1.1-0.4c0-0.3,0.1-0.7,0.4-0.8c0.5-0.1,1.5-0.4,1.7-1
			c0-0.1,0.7-0.8,0.9-0.4c0,0,0,0.1,0,0.1c0,0,0,0.1,0,0.1l0,0l0,0c0,0,0,0,0,0c0,0.1,0,0.2-0.1,0.4c-0.1,0.8-0.1,1.7-0.1,2.5
			c0.1,0.8-0.9-0.4-0.9-0.6c-0.1,0.3-0.2,0.6-0.3,0.9l0,0v0c-0.4,1.1-0.8,2.3-0.8,2.9c0,0.7,0,1.5-0.1,2.2c-0.1,1.2-0.1,2.4,0,3.5
			c0,0,0,0,0,0.1v0c0,0,0,0,0,0.1c0,0,0,0,0,0l0,0c0,0,0,0,0,0c0.6-0.4,1.1-1.1,1.6-1.8c1-1.3,2-2.7,3.3-2.2c1,0.5,1.8,0.7,2.5,0.9
			c1.3,0.3,2.3,0.5,3.9,2.9c-0.8-2.7-1.9-3.4-3.4-4.3c-1-0.6-2.2-1.3-3.7-2.9c-0.5-1.5-1.2-4.2-1.3-6c0-0.1,0-0.2,0-0.3
			c0.2-0.4,0.4-0.6,0.7-0.7c0.2-0.2,0.4-0.3,0.5-0.6v-3.2l-0.4-0.4c-0.4-0.7-0.5-1.2-0.7-1.8v0l0,0c-0.1-0.4-0.2-0.7-0.4-1.2l0,0
			l0,0c-0.3,0-0.5,0-0.7-0.3c-0.2-0.3-0.4-0.7-0.5-1.1c-0.1-0.3-0.2-0.6-0.4-0.8c-0.4-0.7-0.6-1.6-0.7-2.4c0-0.4-0.1-0.8-0.2-1.2
			C9.1,17.3,9,17,9,16.7c0-0.5,0.1-0.5,0.5-0.6c0-0.6-0.1-1.2-0.2-1.8c0.1,0,0.1-0.1,0.2-0.1h0c0,0,0,0,0.1,0L9.6,14
			c-0.1,0.1-0.2,0.1-0.3,0.2c-0.1-0.9-0.3-1.8-0.5-2.6l0,0C8.3,9.8,7.9,8,8.5,6.1c0.6-1.3,1.5-2.5,2.7-3.4c0,0,0,0,0,0l0.1,0
			c0,0,0,0,0,0l0,0c0,0,0,0,0,0c0,0,0,0,0,0c0,0,0,0,0,0c0,0,0,0,0,0v0c0,0,0,0,0,0.1c0,0,0,0,0,0c0,0,0,0,0,0v0
			c0.1,0.6-0.6,1.3-1,1.7c0,0-0.1,0.1-0.1,0.1c-0.4,0.8-0.9,2-0.8,3c0.5-0.9,1.2-1.7,2.1-2.3c0.1-0.2,0.2-0.4,0.4-0.5
			c0.2-0.1,0.4-0.2,0.6-0.3c0.2,0,0.3-0.1,0.5-0.1C11.2,3.7,14.5,3,15.3,3c0.8-0.3,1.8,0,2.7,0.2c0.9,0.2,1.7,0.4,2.4,0.2
			c0,0-0.1-0.1-0.1-0.1c-0.3-0.3-0.7-0.9-0.1-1.1c1.1,0.5,1.7,0.4,2.3,0.2C23,2.4,23.4,2.3,24,2.4c0.8,0.1-0.5-0.6-1.9-1.3
			c-0.4-0.1-0.9-0.2-1.3-0.2c-0.1,0-0.2-0.2-0.1-0.3c-0.4,0-0.7-0.1-1.1-0.2c-0.1,0-0.1-0.1-0.1-0.2c0-0.1,0.1-0.2,0.1-0.1
			c0.3,0.1,0.7,0.1,1,0.2c0.1,0,0.2,0,0.3,0c2,0.2,4.3,0.5,5.8,2c0.4,0.7,1,0.9,1.7,1.2C29,3.6,29.5,3.8,30,4.3
			c0.5,0.5,0.9,1.2,1,1.9l0,0c0,0,0,0,0,0v2.9c0,0.2,0,0.4-0.1,0.6v0c-0.1,0.7-0.2,1.4-0.2,2.1l0,0.2l0,0.2c0,0.1,0,0.3,0,0.4
			c0,0.1-0.1,0-0.2,0c0.1,0.2,0.1,0.5,0.2,0.7c0,0.1,0,0.2-0.1,0.2c0,0.1-0.1,0.1-0.2,0.2c0.1,0.1,0.2,0.1,0.3,0.2
			c0,0.5-0.1,0.9-0.1,1.3v0l0,0l0,0.2L30.5,16c0,0,0,0,0,0c0,0,0,0,0,0c0.6-0.1,0.7,0.3,0.7,0.8c0,0.5,0,0.8,0,1.2v0.2
			c0,0.1,0,0.1,0,0.2v0l0,0l0,0c-0.1,0.8-0.3,1.6-0.7,2.3c-0.2,0.5-0.4,1-0.5,1.4l0,0c-0.1,0.2-0.2,0.3-0.5,0.1c0,0-0.1,0-0.1-0.1
			l-0.1,0.6c-0.3,1.4-0.9,2.7-1.5,4l0,0.1l0.1,0.5l0,0.1l0.1,0.5l0.4,2.3c0,0.9,0,1.7,0.1,2.6c0.2,2.6,0.3,4.9-2.8,5.8
			c-2.5,0.3-3.1,2.8-4.2,7.4l-0.1,0.5c0.5-1.2,0.8-1.9,1-2.5c0.3-0.6,0.5-1.1,0.7-1.8c2.1-4.7,6.2-2.5,7.8,1.2
			c2.4,5.8,1.7-4.9,1.4-6.7c-0.1-0.6-0.3-1.1-0.7-1.5c-0.2-0.2-0.3,0.1-0.3,0.4c-0.1,0.4-0.2,0.9-0.6,0.8c-0.2-0.8-0.4-1.6-0.5-2.3
			c-0.2-1-0.4-2-0.7-3c0.8,0.2,1,0.9,1.2,1.7c0.1,0.3,0.2,0.5,0.3,0.7c0.1,0.4,0.4,0.7,0.7,0.9c0.2,0.1,0.3,0.2,0.5,0.3l0,0h0l0,0
			c1.4,0.8,2.8,1.6,4.3,2.1C36.5,37,36.9,37.2,37.4,37.3z M15.5,25.4c0.3,0.3,0.6,0.6,0.8,1.4v0c0.3,1.3,1.5,2.8,3,2.8
			c0.5,0,0.9-0.1,1.1-0.2c0.3-0.1,0.6-0.2,1.1,0c1.7,0.6,3.2-0.8,3.7-1.3h0c0.1-0.1,0.2-0.2,0.2-0.2c0.4,0,0.9-0.1,1.2-0.4
			c0.3-0.3,0.6-0.6,0.8-1c0.6-1.4,1.2-2.9,1.3-4.3c0.9-0.8,1.2-2.5,1.2-3.2c0-0.5,0-0.9,0-1.4c0.2-0.2,0.7,0.7,0.9,1
			c0-0.1,0-0.2,0-0.3c0-0.2-0.1-0.3-0.1-0.4c-0.1-0.2-0.1-0.3-0.1-0.5c0-0.4-0.5-0.5-0.8-0.5c-0.2,0.1-0.3-0.1-0.3-0.3
			c0.1-0.3,0.1-0.5,0.1-0.7c0-0.2-0.1-0.5,0.1-0.8c0-0.1-0.2-0.6-0.4-1.2l0,0c-0.2-0.6-0.5-1.2-0.7-1.7c0.3,0.5,0.8,0.9,1.2,1.3
			c-0.2-0.4-0.4-0.9-0.5-1.3c0-0.5,0.4-0.2,0.7,0.1c-0.9-1.1-2.1-3.2,0.1-1.7c-0.4-0.6-0.8-1.2-1.1-1.9v0l0,0
			c-0.9-1.6-1.8-3.2-3.7-3.9c-0.6-0.6,0.6-0.5,0.9-0.2c6.5,2.9,2.5-2.5-1.4-0.2c-0.6,0.2-1.2,0.3-1.8,0.3c-1.1,0.1-2.1,0.2-2.9,1.1
			c-1.1-0.2-2.2-0.1-3.3,0.1c-1,0.1-2,0.3-3,0.1c-0.7,0.1-1.5,1.1-2,2.1c-0.1,0.2,0,0.5,0,0.7c0,0.4,0.1,0.8-0.2,1.1
			c-0.1,0.3-0.1,0.5-0.2,0.6c-0.1,0.3-0.2,0.4,0.2,0.1c0.1,0.4-0.3,1.1-0.5,1.5c-0.2,0.3-0.2,0.3,0.5-0.5c0.4-0.2,0.4,0.3,0.4,1.1
			c-0.2,0-0.4,0-0.6,0.1c-0.2,0.1-0.3,0.2-0.5,0.4c0,0,0,0-0.1,0.1l0,0l0,0l-0.2,0.5c0.1-0.1,0.3-0.1,0.4-0.2l0,0l0,0
			c0.3-0.1,0.5-0.3,0.8-0.4c0,1.1-0.2,2.2-0.6,3.3c-0.1,0.3,0,0.7,0.2,1.1c0.1,0.2,0.2,0.4,0.2,0.7c0.1,1,0.2,1.1,0.5,1.6
			c0.1,0.1,0.2,0.3,0.3,0.5c0.9,0.4,3.1,0,4-1c0.6-0.6,1.9-0.8,1.9-0.8c-0.3,0.3-0.6,1.3-0.2,1.9c0.1,0.1,0.2,0,0.3,0
			c0.1-0.1,0.3-0.2,0.4-0.2c0.2,0,0.4,0,0.6,0.1c0.2,0.1,0.4,0.2,0.5,0.3c0.6,0.4,0.9,0.2,1.1,0c0.1,0,0.1-0.1,0.2-0.2
			c0.1-0.1,0.3-0.3,0.6-0.4c0.7-0.1,1,0.2,0.9,0.3c-0.2,0.2-0.4,0.3-0.6,0.3c-0.2,0-0.4,0.1-0.6,0.1c-0.1,0.3-0.1,0.6-0.1,0.9
			c0,0.2,0.1,0.4,0.1,0.5l0,0c0,0.1,0.1,0.2,0.1,0.2c0,0.2,0.1,0.3,0.3,0.3c0.1,0,0.1,0,0.2,0c0.3,0,0.6,0,0.7,0.1c0,0,0,0.1,0,0.1
			c0,0.1,0,0.1,0.5,0.1c0.7,0,0.9-0.1,0.8-0.6c0,0,0-0.1,0-0.1v0c0-0.8,0-1.7-0.6-2.3c-0.2-0.2-0.4-0.1-0.6-0.1c0,0-0.1,0-0.1,0
			c0-0.1-0.1-0.3,0-0.4v0c0-0.2,0-0.4-0.1-0.6c0-0.2-0.1-0.3-0.2-0.4c0,0-0.1-0.1,0.1-0.1c0.1,0,0.2,0.1,0.4,0.2
			c0.3,0.2,0.6,0.3,0.8,0.4c0.8,0.2,1.9,0.6,2.4,1.1c0.9,0.9,0.5,1.8,0.2,2.1c-0.2,0.2-0.6,0.1-0.8,0c0,0-0.1,0-0.1,0
			c-0.2-0.1-0.5,0-0.4,0.3c0.1,0.3,0.2,0.5,0.3,0.6c0.2,0.2,0.2,0.4,0.4,1c0.1,0.8,0,2.3-0.1,2.4c-0.1,0.1-0.1-0.1-0.2-0.4l0,0
			c-0.1-0.2-0.1-0.6-0.3-1c-0.1-0.4-0.4-0.8-0.7-1.1c0,0-0.1-0.1-0.1-0.1c-0.1-0.1-0.1-0.1-0.2-0.2c-0.1,0-0.2-0.1-0.3-0.1
			c-0.1,0-0.1,0.1-0.1,0.1c0,0.1-0.1,0.1-0.2,0.1c-0.1,0-0.1,0-0.2,0h0c-0.2,0-0.4,0-0.5,0c0-0.1,0-0.1-0.1-0.2
			c0-0.1-0.1-0.2-0.2-0.2c-0.2-0.1-2.6,0-3.3,0.2c-0.1,0-0.2,0.1-0.3,0.1c-0.2,0.1-0.3,0.2-0.3,0.3c0,0,0,0.1-0.1,0.1
			c-0.5,0-1,0-1.6,0c-0.2-0.1-0.4-0.1-0.7-0.1c0,0,0,0-0.1,0c-0.3,0-0.7,0.1-0.9-0.4c-0.1-0.3-0.1-0.6-0.1-1c0,0-1,1.2-0.5,2
			C15.2,25,15.4,25.2,15.5,25.4z M17.5,20.5c0,0-0.3,0.1-0.3,0.3l0,0c0,0.1,0,0.1,0.1,0.2c0.1,0.1,0.1,0.2,0.1,0.4
			c0,0.1-0.1,0.2-0.1,0.2l0,0c-0.1,0.2-0.2,0.4-0.1,0.7c0.2,0.5,0.9,0.5,1.2,0.4c0.3-0.1,0.6-0.1,0.8-0.2c0,0-0.5-0.5-0.7-0.8
			C18.2,21.5,17.5,20.5,17.5,20.5z M18.8,36.4c1,0.7,1.7,1.7,2,2.9l0,0c0,0.1,0,0.1,0,0.2c0,0.2,0.1,0.4,0.3,0.5
			c0.2,0,0.4-0.2,0.5-0.3c0,0,0.1-0.1,0.1-0.1c0.5-0.6,1.1-1.1,1.7-1.5c0.6-0.4,1.2-0.6,1.9-0.7c0.1,0,0.3-0.1,0.4-0.2
			c0.1-0.1,0.2-0.2,0.3-0.3c0.2-0.3,0.3-0.7,0.4-1.1c0.1-0.4,0.2-0.8,0.5-1.2c1.1-1.5,0.8-7,0.4-6.3c-0.7,0.7-1.9,1.1-3.1,1.5h0v0
			c-0.6,0.2-1.2,0.4-1.8,0.7c-0.2,0.1-0.3,0.4-0.4,0.6c-0.1,0.2-0.2,0.5-0.4,0.5c-0.5,0.3-1,0.6-1.5,1c-0.2,1.3,0.1,1.7,0.4,1.9
			c0.2,0.2,0.3,0.3,0.2,0.6c-0.2,0.6-1,0.8-1.5,1C18.9,36.2,18.7,36.3,18.8,36.4z M17.5,12.9c0.4,0.1,0.6,0.1,0.8,0h0
			c0.5-0.2,0.7,0.4,0.6,0.8c0,0.1,0,0.2,0,0.4v0c-0.1,0.7-0.1,1.8-1.4,2.3c-1.6,0.6-3.6,0.3-3.6,0.3s-0.1-0.2,0.6-0.2
			c0.7,0,1.4-0.2,2-0.4c0.5-0.2,1-0.3,1-0.3s-1.7-0.1-2.4,0.1c-0.4,0.1-0.8,0.1-1.2,0.1c0,0-0.1,0.1-0.2,0.2
			c-0.1,0.2-0.3,0.4-0.5,0.4c-0.3,0-0.5,0-0.5-0.2c0.4-0.9,1.2-1.6,2.1-1.9c0.7-0.3,1.5-0.4,2.3-0.3c0,0-0.5-0.3-2.1-0.2
			c-1.1,0.1-1.9,0.8-2.4,1.3c-0.2,0.2-0.3,0.3-0.4,0.3c-0.1,0,0-0.1,0-0.3l0,0c0-0.2,0.1-0.3,0-0.4c-0.1-0.1-0.1-0.3-0.1-0.5
			c0-0.2,0.1-0.3,0.2-0.4c0,0,0.9-1.2,3-1.2C16.6,12.8,17.2,12.9,17.5,12.9z M26.4,15.2c-0.5-0.5-1.3-1.2-2.2-1.3
			c-0.8-0.1-2.4,0.5-2.4,0.5c0-0.1,0.1-0.3,0.2-0.4c0.1-0.1,0.2-0.2,0.3-0.3c0.5-0.2,1.7-0.2,2.2-0.2c0,0,0.1,0,0.2,0h0
			c0.2,0,0.3,0,0.5,0.1h0c0.4,0.1,0.9,0.3,1.2,0.5c0.2,0.1,0.4,0.3,0.5,0.3c0.3,0,0.1-0.4,0.1-0.4c-0.1-0.4-0.3-0.8-0.7-1.2
			c-0.3-0.2-0.9-0.3-1.3-0.3c-0.1,0-0.2,0-0.3,0h0l0,0c-0.1,0-0.2,0-0.3,0c-0.2,0-0.4,0-0.7,0c-0.6-0.1-1.3-0.1-1.9,0
			c-1.2,0.2-0.8,2.1-0.8,2.1c0,0.2,0,0.4,0.1,0.6c0.1,0.2,0.3,0.3,0.4,0.4c0.2,0.1,0.2,0.2,0.2,0.4c0,0.2,0,0.4,0.2,0.6
			c0.5,0.4,3.4,0.2,3.4,0.2c-0.2-0.2-0.4-0.4-0.6-0.5C24.8,16,24.4,16,24,16c-0.2,0-0.4,0-0.6,0c-0.4-0.1-0.7-0.1-1.1-0.3
			c0.2,0,0.4,0,0.6,0c0.4,0,1.5,0.1,1.8-0.1c0.2-0.1,0.4-0.3,0.5-0.5c0.3,0.1,0.5,0.3,0.7,0.5c0.3,0.3,0.7,0.4,1.1,0.5
			C27.2,16,27,15.6,26.4,15.2L26.4,15.2z M21.8,25.1c0.7,0,1.2,0,0.6,0.5h0c-0.7,0.7-1.2,0.8-2.4,0.8c-0.3,0-0.7,0-1-0.1
			c-0.3-0.1-0.6-0.3-0.9-0.5c-0.3-0.2-1-1.1-0.7-1c0.4,0.2,0.8,0.3,1.2,0.3c0.3,0,0.8,0,1.4,0c0.4,0,0.8,0,1.3,0
			C21.5,25.1,21.7,25.1,21.8,25.1z"/>
		<path class="st2" d="M134.5,14.1c-0.3,0.6-0.5,1.2-0.5,1.8l0,0c0,0.6,0.2,1.3,0.5,1.8c0.3,0.6,0.8,1,1.3,1.4
			c0.6,0.3,1.2,0.5,1.8,0.5c0.7,0,1.3-0.2,1.9-0.5c0.6-0.3,1-0.8,1.3-1.4c0.3-0.6,0.5-1.2,0.5-1.8c0-0.6-0.2-1.3-0.5-1.8
			c-0.3-0.6-0.8-1-1.3-1.3c-0.6-0.3-1.2-0.5-1.8-0.5c-0.6,0-1.3,0.2-1.8,0.5C135.3,13.1,134.8,13.5,134.5,14.1z M135,17.5
			c-0.3-0.5-0.4-1-0.4-1.6c0-0.5,0.1-1.1,0.4-1.5c0.3-0.5,0.7-0.9,1.1-1.1c0.5-0.3,1-0.4,1.5-0.4c0.5,0,1.1,0.1,1.5,0.4
			c0.5,0.3,0.9,0.6,1.1,1.1c0.3,0.5,0.4,1,0.4,1.5c0,0.5-0.1,1.1-0.4,1.5c-0.3,0.5-0.7,0.9-1.1,1.1c-0.5,0.3-1,0.4-1.5,0.4
			c-0.5,0-1.1-0.1-1.5-0.4C135.7,18.4,135.3,18,135,17.5z M136.9,18v-1.7l0.9,0c0.4,0,0.6,0.2,0.7,0.5c0,0.2,0,0.4,0,0.5
			c0,0.2,0,0.4,0.1,0.6h0.7v-0.1c-0.1-0.2-0.1-0.4-0.1-0.6V17c0-0.2,0-0.4-0.1-0.6c-0.1-0.2-0.3-0.3-0.5-0.4
			c0.2-0.1,0.4-0.2,0.5-0.4c0.1-0.2,0.2-0.4,0.2-0.6c0-0.2,0-0.4-0.1-0.5c-0.1-0.2-0.2-0.3-0.3-0.4c-0.4-0.2-0.8-0.3-1.2-0.3h-1.4
			V18H136.9z M137.7,15.7h-0.8l0-1.2h0.7c0.2,0,0.5,0,0.7,0.1c0.1,0.1,0.1,0.1,0.2,0.2c0,0.1,0,0.2,0,0.3c0,0.1,0,0.2-0.1,0.2
			c0,0.1-0.1,0.1-0.2,0.2C138.2,15.6,138,15.7,137.7,15.7z M85.8,29v-7.6l1.6,0c1.6,0,2.7,0.3,3.4,0.9c0.7,0.6,1,1.6,1,3
			c0,1.4-0.3,2.3-1,2.9C90.2,28.8,89,29,87.4,29H85.8z M85.8,20.5v-7.2h1.6c1.5,0,2.5,0.3,3.1,0.8c0.5,0.5,0.8,1.5,0.8,2.8
			c0,1.3-0.3,2.2-0.8,2.7c-0.6,0.6-1.5,0.8-2.8,0.8H85.8z M82.2,12.4c-0.5,0-1,0-1.5-0.1l0,1c0.9,0,1.4,0.1,1.7,0.3
			c0.2,0.2,0.4,0.7,0.4,1.5V27c0,0.9-0.1,1.5-0.4,1.7c-0.2,0.2-0.8,0.4-1.7,0.4l0,1c0.6,0,1.2,0,1.7-0.1c0.6,0,1.1,0,1.6,0
			c0.3,0,1,0,1.9,0c0.9,0,1.7,0,2.3,0c2.4,0,4.2-0.4,5.3-1.1c1.1-0.7,1.6-1.9,1.6-3.4c0-1.4-0.4-2.4-1.3-3.2
			c-0.9-0.8-2.2-1.2-3.9-1.3V21c1.5-0.1,2.6-0.5,3.4-1.3c0.4-0.4,0.7-0.9,0.9-1.4c0.2-0.5,0.3-1.1,0.3-1.6c0-1.5-0.5-2.6-1.5-3.3
			c-1-0.7-2.5-1.1-4.6-1.1c-0.1,0-0.6,0-1.6,0c-1,0-2,0-2.9,0C83.2,12.4,82.7,12.4,82.2,12.4z M50.3,29.1V13.3h1.4
			c2.6,0,4.4,0.6,5.5,1.8c1.1,1.2,1.6,3.2,1.6,6c0,1.5-0.2,3.1-0.7,4.5c-0.4,1.1-1.2,2-2.1,2.6c-0.5,0.3-1,0.5-1.5,0.6
			c-0.8,0.1-1.6,0.2-2.4,0.2H50.3z M46.3,12.4c-0.4,0-0.8,0-1.1-0.1v1c0.9,0,1.5,0.1,1.7,0.4c0.2,0.2,0.4,0.8,0.4,1.7V27
			c0,0.9-0.1,1.5-0.4,1.7c-0.2,0.2-0.8,0.4-1.7,0.4v1c0.5,0,1.1-0.1,1.6-0.1c0.5,0,1.1,0,1.7,0c0.5,0,1.3,0,2.4,0c1,0,1.8,0,2.3,0
			c3,0,5.3-0.8,6.9-2.3c1.6-1.5,2.4-3.7,2.4-6.5c0-2.8-0.8-5-2.5-6.5c-1.7-1.6-4-2.4-7-2.4c-0.6,0-1.4,0-2.4,0c-1,0-1.8,0-2.2,0
			C47.3,12.4,46.7,12.4,46.3,12.4z M65,19.4c0.2,0.2,0.3,0.6,0.3,1.2v6.9c0,0.7-0.1,1.2-0.3,1.3c-0.2,0.2-0.8,0.3-1.7,0.4v0.8
			c1.1,0,1.9-0.1,2.3-0.1c0.4,0,0.7,0,1,0c0.5,0,1,0,1.7,0c0.6,0,1.5,0.1,2.4,0.1v-0.8c-1.3,0-2-0.1-2.3-0.3
			c-0.3-0.2-0.4-0.6-0.4-1.4v-3.2c0-1.3,0.3-2.7,0.9-3.9c0.6-1.1,1.3-1.6,2.1-1.6h0c-0.1,0.2-0.2,0.4-0.2,0.6
			c-0.1,0.2-0.1,0.4-0.1,0.6c0,0.4,0.1,0.8,0.3,1.1c0.1,0.1,0.3,0.2,0.5,0.3c0.2,0.1,0.4,0.1,0.5,0.1c0.2,0,0.3,0,0.5-0.1
			c0.2-0.1,0.3-0.2,0.4-0.3c0.2-0.3,0.4-0.7,0.3-1.1c0-0.3,0-0.5-0.1-0.8c-0.1-0.3-0.3-0.5-0.4-0.7c-0.4-0.4-1-0.6-1.6-0.6
			c-0.3,0-0.7,0.1-1,0.2c-0.3,0.1-0.6,0.3-0.8,0.6c-0.6,0.7-1.1,1.5-1.4,2.3V18c-0.7,0.1-1.5,0.2-2.3,0.2c-0.8,0.1-1.5,0.1-2.3,0.1
			v0.9C64.2,19.2,64.8,19.3,65,19.4z M74,26.9c0.2,0,0.4,0,0.6,0.1c0.2,0.1,0.4,0.2,0.5,0.3c0.3,0.3,0.4,0.8,0.4,1.2
			c0,0.4-0.1,0.9-0.4,1.2c-0.1,0.2-0.3,0.3-0.5,0.4c-0.2,0.1-0.4,0.1-0.6,0.1c-0.2,0-0.4,0-0.6-0.1c-0.2-0.1-0.4-0.2-0.5-0.4
			c-0.3-0.3-0.4-0.8-0.4-1.2c0-0.4,0.1-0.9,0.4-1.2c0.1-0.2,0.3-0.3,0.5-0.4C73.6,26.9,73.8,26.9,74,26.9L74,26.9z M99.5,22.9
			l5.7-0.1c0-1.3-0.2-2.3-0.7-2.9c-0.2-0.3-0.5-0.6-0.9-0.8c-0.4-0.2-0.8-0.3-1.2-0.2c-0.4,0-0.8,0.1-1.2,0.3
			c-0.4,0.2-0.7,0.5-0.9,0.8C99.9,20.6,99.6,21.6,99.5,22.9z M99.5,23.7c0,1.7,0.3,3,1,3.9c0.3,0.4,0.8,0.8,1.2,1
			c0.5,0.2,1,0.3,1.6,0.3c0.8,0,1.6-0.2,2.3-0.7c0.7-0.5,1.2-1.1,1.5-1.9l0.7,0.2c-0.3,1.1-1,2.1-1.9,2.7c-1,0.7-2.2,1-3.5,0.9
			c-1.8,0-3.2-0.5-4.3-1.6c-1-1.1-1.6-2.6-1.6-4.5c0-1.9,0.5-3.4,1.6-4.5c1.1-1.1,2.5-1.7,4.3-1.7c1.6,0,2.9,0.5,3.9,1.5
			c0.9,1,1.4,2.3,1.4,4v0.2L99.5,23.7z M110,19.4c0.2,0.2,0.3,0.6,0.3,1.2l0,6.9c0,0.7-0.1,1.2-0.3,1.3c-0.2,0.2-0.8,0.3-1.7,0.4
			v0.8c1.1,0,1.9-0.1,2.3-0.1c0.4,0,0.7,0,1,0c0.5,0,1,0,1.7,0c0.6,0,1.5,0.1,2.4,0.1v-0.8c-1.3,0-2-0.1-2.3-0.3
			c-0.3-0.2-0.4-0.6-0.4-1.4v-3.2c0-1.3,0.3-2.7,0.9-3.9c0.6-1.1,1.3-1.6,2.1-1.6h0c-0.1,0.2-0.2,0.4-0.2,0.6
			c-0.1,0.2-0.1,0.4-0.1,0.6c0,0.4,0.1,0.8,0.3,1.1c0.1,0.1,0.3,0.2,0.5,0.3c0.2,0.1,0.4,0.1,0.5,0.1c0.2,0,0.3,0,0.5-0.1
			c0.2-0.1,0.3-0.2,0.4-0.3c0.2-0.3,0.4-0.7,0.3-1.1c0-0.3,0-0.5-0.1-0.8c-0.1-0.3-0.3-0.5-0.4-0.7c-0.4-0.4-1-0.6-1.6-0.6
			c-0.3,0-0.7,0.1-1,0.2c-0.3,0.1-0.6,0.3-0.8,0.6c-0.6,0.7-1.1,1.5-1.4,2.3V18c-0.7,0.1-1.5,0.2-2.3,0.2c-0.8,0.1-1.5,0.1-2.3,0.1
			v0.9C109.2,19.2,109.8,19.3,110,19.4z M123.8,18.8c-0.3,0-0.7,0-1,0.2c-0.3,0.1-0.6,0.3-0.8,0.6c-0.4,0.5-0.6,1.3-0.6,2.4
			c0,1.1,0.2,1.9,0.6,2.4c0.2,0.3,0.5,0.5,0.8,0.6c0.3,0.1,0.6,0.2,1,0.2c0.3,0,0.7,0,1-0.2c0.3-0.1,0.6-0.4,0.8-0.6
			c0.4-0.5,0.6-1.3,0.6-2.4c0-1.1-0.2-1.9-0.6-2.4c-0.2-0.3-0.5-0.5-0.8-0.6C124.5,18.9,124.2,18.8,123.8,18.8L123.8,18.8z
			 M121.6,30.7c-0.4,0.1-0.8,0.4-1,0.7c-0.2,0.3-0.4,0.7-0.4,1.1c0,0.4,0.1,0.7,0.3,1c0.2,0.3,0.4,0.5,0.7,0.7
			c0.7,0.4,1.6,0.6,2.8,0.6c1.1,0,2.2-0.2,3.2-0.7c0.8-0.5,1.2-1,1.2-1.7c0-0.9-1.2-1.4-3.6-1.5C123.5,30.8,122.4,30.7,121.6,30.7z
			 M127.2,19.1c0.3-0.4,0.7-0.8,1.2-1.1c0.4-0.2,0.8-0.3,1.2-0.3c0.3,0,0.6,0,0.9,0.2c0.1,0.1,0.2,0.2,0.2,0.3c0,0.1,0.1,0.2,0,0.3
			c0,0.1,0,0.2,0,0.3c0,0.1-0.1,0.2-0.2,0.3c-0.1,0.1-0.2,0.1-0.3,0.2c-0.1,0-0.2,0.1-0.3,0c-0.3,0-0.5-0.1-0.8-0.2
			c-0.2-0.1-0.3-0.1-0.5-0.2c-0.2,0-0.3,0.1-0.5,0.2c-0.2,0.1-0.3,0.3-0.4,0.4c0.3,0.3,0.5,0.7,0.6,1.1c0.1,0.4,0.2,0.9,0.2,1.3
			c0,1.3-0.4,2.3-1.2,3c-0.8,0.7-2,1.1-3.5,1.1c-0.1,0-0.2,0-0.5,0c-0.3,0-0.5,0-0.7,0c-0.4,0-0.7,0.1-1.1,0.2
			c-0.1,0.1-0.2,0.2-0.3,0.3c-0.1,0.1-0.1,0.3-0.1,0.4c0,0.8,1.3,1.2,3.8,1.3c0.2,0,0.3,0,0.4,0c0.1,0,0.1,0,0.1,0c0,0,0.1,0,0.1,0
			c1.7,0.1,3,0.3,3.7,0.8c0.4,0.2,0.7,0.6,0.9,0.9c0.2,0.4,0.3,0.8,0.3,1.3c0,1.2-0.6,2.2-1.8,3c-1.2,0.8-2.8,1.2-4.8,1.2
			c-1.5,0-2.8-0.3-3.7-0.8c-1-0.5-1.4-1.2-1.4-2.1c0-0.6,0.2-1.1,0.6-1.5c0.4-0.5,1-0.8,1.6-1c-0.4-0.2-0.8-0.5-1.1-0.8
			c-0.3-0.4-0.4-0.9-0.4-1.4c0-0.5,0.2-1,0.5-1.3c0.4-0.5,1-0.8,1.6-1c-0.7-0.2-1.4-0.6-1.9-1.2c-0.5-0.6-0.7-1.4-0.7-2.2
			c0-0.6,0.1-1.1,0.3-1.7c0.2-0.5,0.6-1,1-1.4c1-0.8,2.2-1.2,3.4-1.2c0.7,0,1.3,0.1,2,0.3C126.3,18.4,126.8,18.7,127.2,19.1
			L127.2,19.1z"/>
		<path class="st2" d="M238.7,20.2v7.7l2.3,0c0.6,0,1.2-0.2,1.7-0.5c0.5-0.3,0.9-0.8,1.2-1.3c0.3-0.6,0.4-1.2,0.4-1.9v-0.4
			c0-0.7-0.1-1.3-0.4-1.9c-0.3-0.5-0.7-1-1.2-1.3c-0.5-0.3-1.1-0.5-1.7-0.5H238.7z M240.2,26.6v-5.1h0.8c0.3,0,0.5,0,0.8,0.1
			c0.2,0.1,0.4,0.3,0.6,0.5c0.3,0.5,0.5,1.1,0.5,1.8v0.4c0,0.6-0.1,1.2-0.5,1.7c-0.2,0.2-0.4,0.4-0.6,0.5c-0.2,0.1-0.5,0.2-0.8,0.1
			H240.2z M216.4,27.8v-7.7h2.3c0.6,0,1.2,0.1,1.7,0.5c0.5,0.3,0.9,0.8,1.2,1.3c0.3,0.6,0.4,1.2,0.4,1.9v0.4c0,0.7-0.1,1.3-0.4,1.9
			c-0.3,0.5-0.7,1-1.2,1.3c-0.5,0.3-1.1,0.5-1.7,0.5L216.4,27.8z M217.9,21.4v5.1h0.7c0.3,0,0.5,0,0.8-0.1c0.2-0.1,0.4-0.3,0.6-0.5
			c0.3-0.5,0.5-1.1,0.5-1.7v-0.4c0-0.6-0.1-1.2-0.5-1.8c-0.2-0.2-0.4-0.4-0.6-0.5c-0.2-0.1-0.5-0.2-0.8-0.1H217.9z M194.7,24.2
			c0,0.7-0.1,1.3-0.4,1.9c-0.2,0.5-0.6,1-1.1,1.3c-0.5,0.3-1.1,0.4-1.6,0.5c-0.6,0-1.1-0.2-1.6-0.4c-0.5-0.3-0.9-0.7-1.1-1.3
			c-0.3-0.6-0.4-1.2-0.4-1.9v-0.4c0-0.7,0.1-1.3,0.4-1.9c0.2-0.5,0.6-1,1.1-1.3c0.5-0.3,1.1-0.4,1.6-0.4c0.6,0,1.1,0.2,1.6,0.4
			c0.5,0.3,0.9,0.8,1.1,1.3c0.3,0.6,0.4,1.3,0.4,1.9V24.2z M193.2,23.8c0-0.6-0.1-1.2-0.4-1.8c-0.1-0.2-0.3-0.3-0.5-0.4
			c-0.2-0.1-0.4-0.2-0.7-0.2c-0.2,0-0.5,0.1-0.7,0.2c-0.2,0.1-0.4,0.3-0.5,0.4c-0.3,0.5-0.5,1.1-0.4,1.8v0.4c0,0.6,0.1,1.2,0.4,1.8
			c0.1,0.2,0.3,0.4,0.5,0.5c0.2,0.1,0.4,0.2,0.7,0.2c0.2,0,0.5-0.1,0.7-0.2c0.2-0.1,0.4-0.3,0.5-0.4c0.3-0.5,0.5-1.2,0.4-1.8V23.8z
			 M158,21.4h-2.3v6.4h-1.5v-6.4H152v-1.3h6V21.4z M164.9,27.8h-1.5v-3.3h-3v3.3h-1.5v-7.7h1.5v3.1h3v-3.1h1.5L164.9,27.8z
			 M167.7,24.5h2.9l0-1.2h-2.9v-1.8h3.4v-1.3h-5v7.7h5v-1.3h-3.4V24.5z M177,24.8l-0.8,0.9v2.2h-1.5v-7.7h1.5v3.5l0.7-1l1.9-2.5h1.9
			l-2.6,3.4l2.7,4.3h-1.8L177,24.8z M185.8,27.8h1.5v-7.7h-1.5v5.1l-3-5.1h-1.5v7.7h1.5v-5L185.8,27.8z M202.6,20.2l-1,5.5l-1.2-5.5
			h-1.3l-1.2,5.4l-1-5.4h-1.5l1.6,7.7h1.5l1.2-5.1l1.2,5.1h1.5l1.6-7.7H202.6z M206.4,26.6h3.2v1.3h-4.8v-7.7h1.5V26.6z M212.1,24.5
			h2.9l0-1.2h-2.9v-1.8h3.4v-1.3h-4.9v7.7h5v-1.3h-3.4V24.5z M227.9,27.6c0.5-0.1,0.9-0.4,1.2-0.8v-3h-2.9v1.1h1.4v1.3
			c-0.3,0.3-0.8,0.4-1.2,0.4c-0.2,0-0.5,0-0.7-0.1c-0.2-0.1-0.4-0.3-0.6-0.5c-0.3-0.5-0.5-1.1-0.4-1.8v-0.5c0-0.6,0.1-1.2,0.4-1.8
			c0.1-0.2,0.3-0.3,0.5-0.5c0.2-0.1,0.4-0.2,0.7-0.1c0.3,0,0.7,0.1,1,0.3c0.3,0.2,0.4,0.6,0.5,0.9h1.5c0-0.7-0.4-1.4-0.9-1.8
			c-0.5-0.4-1.2-0.6-1.8-0.6c-0.7,0-1.3,0.1-1.9,0.4c-0.5,0.3-0.9,0.7-1.1,1.3c-0.3,0.6-0.4,1.3-0.4,1.9v0.5c0,0.7,0.1,1.3,0.4,1.9
			c0.2,0.5,0.6,0.9,1.1,1.2c0.5,0.3,1.1,0.4,1.7,0.4C226.8,27.8,227.3,27.7,227.9,27.6z M234.7,24.5h-2.9v2.1h3.4v1.3h-5v-7.7h4.9
			v1.3h-3.4v1.8h2.9V24.5z M251.5,24.2c0,0.7-0.1,1.3-0.4,1.9c-0.2,0.5-0.6,1-1.1,1.3c-0.5,0.3-1.1,0.4-1.6,0.5
			c-0.6,0-1.1-0.2-1.6-0.4c-0.5-0.3-0.9-0.7-1.1-1.3c-0.3-0.6-0.4-1.2-0.4-1.9v-0.4c0-0.7,0.1-1.3,0.4-1.9c0.2-0.5,0.6-1,1.1-1.3
			c0.5-0.3,1.1-0.4,1.6-0.4c0.6,0,1.1,0.2,1.6,0.4c0.5,0.3,0.9,0.8,1.1,1.3c0.3,0.6,0.4,1.3,0.4,1.9L251.5,24.2z M250,23.8
			c0-0.6-0.1-1.2-0.4-1.8c-0.1-0.2-0.3-0.3-0.5-0.4c-0.2-0.1-0.4-0.2-0.7-0.2c-0.2,0-0.5,0.1-0.7,0.2c-0.2,0.1-0.4,0.3-0.5,0.4
			c-0.3,0.5-0.5,1.1-0.4,1.8v0.4c0,0.6,0.1,1.2,0.4,1.8c0.1,0.2,0.3,0.4,0.5,0.5c0.2,0.1,0.4,0.2,0.7,0.2c0.2,0,0.5-0.1,0.7-0.2
			c0.2-0.1,0.4-0.3,0.5-0.4c0.3-0.5,0.5-1.2,0.4-1.8V23.8z M258.2,26.3c0.2-0.3,0.2-0.7,0.2-1l-1.5,0c0,0.4-0.1,0.7-0.4,1
			c-0.3,0.2-0.7,0.4-1.1,0.3c-0.2,0-0.4,0-0.6-0.1c-0.2-0.1-0.4-0.2-0.5-0.4c-0.3-0.5-0.4-1.2-0.4-1.8v-0.6c0-0.6,0.1-1.2,0.4-1.7
			c0.1-0.2,0.3-0.3,0.5-0.4s0.4-0.1,0.6-0.1c0.4,0,0.8,0.1,1,0.3c0.3,0.3,0.4,0.7,0.4,1h1.5c0-0.7-0.4-1.4-0.9-1.9
			c-0.5-0.4-1.1-0.6-1.8-0.7c-0.7,0-1.3,0.1-1.9,0.4c-0.5,0.3-0.8,0.7-1.1,1.3c-0.3,0.6-0.4,1.2-0.4,1.9v0.5c0,1.1,0.3,2,0.8,2.7
			c0.3,0.3,0.6,0.6,1,0.7c0.4,0.2,0.8,0.2,1.2,0.2c0.8,0,1.5-0.2,2.1-0.7C257.8,26.9,258.1,26.6,258.2,26.3z"/>
		<path class="st2" d="M147.2,0h-0.7v1.2h0.7V0z M147.2,44.4h-0.7V42h0.7V44.4z M147.2,39.6h-0.7v-2.4h0.7V39.6z M147.2,34.8h-0.7
			v-2.4h0.7V34.8z M147.2,30h-0.7v-2.4h0.7V30z M147.2,25.2h-0.7v-2.4h0.7V25.2z M147.2,20.4h-0.7V18h0.7V20.4z M147.2,15.6h-0.7
			v-2.4h0.7V15.6z M147.2,10.8h-0.7V8.4h0.7V10.8z M147.2,6h-0.7V3.6h0.7V6z M146.6,46.8h0.7V48h-0.7V46.8z"/>
	</g>
</g>
</svg>
